<?xml version="1.0" standalone="no"?>
<!DOCTYPE svg PUBLIC "-//W3C//DTD SVG 20010904//EN"
 "http://www.w3.org/TR/2001/REC-SVG-20010904/DTD/svg10.dtd">
<svg version="1.0" xmlns="http://www.w3.org/2000/svg"
 width="512.000000pt" height="512.000000pt" viewBox="0 0 512.000000 512.000000"
 preserveAspectRatio="xMidYMid meet">
<metadata>
Created by potrace 1.14, written by Peter Selinger 2001-2017
</metadata>
<g transform="translate(0.000000,512.000000) scale(0.100000,-0.100000)"
fill="#000000" stroke="none">
<path d="M0 2560 l0 -2560 2560 0 2560 0 0 2560 0 2560 -2560 0 -2560 0 0
-2560z m3703 1687 c37 -16 93 -61 107 -87 9 -16 1 -19 -73 -29 -45 -7 -97 -14
-115 -18 -29 -5 -33 -2 -47 31 -20 48 -19 72 5 96 24 24 76 26 123 7z m-321
-98 c23 -12 64 -45 92 -75 l51 -53 128 19 c472 70 811 30 966 -115 45 -42 81
-97 81 -124 0 -7 -22 -8 -63 -4 -35 3 -87 0 -117 -6 -68 -15 -170 -60 -170
-75 0 -7 9 -40 21 -74 l21 -62 44 0 44 0 0 37 c0 74 67 98 121 44 16 -16 29
-39 29 -51 0 -20 3 -21 47 -14 l46 7 -7 -65 c-7 -73 -55 -273 -86 -363 -11
-32 -32 -72 -47 -87 -67 -70 -413 -121 -633 -93 l-55 7 9 -119 c26 -331 -69
-630 -239 -752 -25 -18 -45 -29 -45 -24 0 4 21 54 46 110 42 92 46 106 39 150
l-7 48 -15 -30 c-9 -17 -45 -79 -81 -140 -211 -357 -330 -777 -349 -1240 l-6
-156 -121 3 -121 3 -86 445 c-47 245 -105 545 -129 667 -24 122 -46 220 -50
218 -4 -2 -15 -39 -26 -82 -20 -84 -25 -235 -11 -335 l8 -57 -52 -15 c-164
-49 -456 -83 -599 -70 l-85 7 90 28 c50 15 128 39 175 53 72 22 88 31 103 57
l18 32 -31 -7 c-102 -20 -239 -30 -415 -30 -220 0 -342 15 -497 60 -12 4 -29
-18 -68 -86 -143 -249 -331 -437 -488 -487 -33 -11 -52 -22 -52 -32 0 -9 -7
-92 -15 -186 -8 -93 -15 -174 -15 -178 0 -4 -62 -6 -138 -5 l-137 3 -36 294
-35 293 51 52 c29 28 65 80 83 116 94 193 53 418 -125 694 -44 68 -45 70 -30
100 8 17 38 63 67 101 410 548 962 876 1575 936 226 22 530 -4 765 -67 92 -24
96 -24 133 -8 21 10 34 21 30 24 -4 4 -66 25 -137 46 l-129 38 73 12 c88 15
176 57 252 121 61 51 152 159 194 231 l26 43 -46 49 c-52 56 -66 85 -66 138 1
97 119 139 232 81z m424 -2152 c-65 -314 -92 -604 -82 -867 4 -91 9 -189 13
-217 l6 -53 -110 0 -110 0 -31 108 c-51 178 -57 217 -57 402 0 181 9 247 55
400 20 65 20 65 77 90 68 29 169 126 223 212 19 31 36 55 38 53 2 -2 -8 -59
-22 -128z m-2173 -343 c83 -14 153 -27 155 -29 2 -2 44 -167 93 -367 49 -199
92 -371 95 -380 5 -17 -6 -18 -139 -18 l-144 0 -64 166 -64 166 -128 116 c-70
64 -126 120 -125 123 6 13 163 249 167 249 2 0 71 -12 154 -26z"/>
<path d="M3674 3849 c-35 -4 -90 -21 -130 -41 l-69 -33 67 -3 c56 -2 69 -6 81
-26 20 -30 76 -56 122 -56 46 0 102 26 122 56 12 20 25 24 81 26 l67 3 -46 22
c-90 44 -202 63 -295 52z"/>
</g>
</svg>
